<?xml version="1.0" standalone="no"?>
<!DOCTYPE svg PUBLIC "-//W3C//DTD SVG 20010904//EN"
 "http://www.w3.org/TR/2001/REC-SVG-20010904/DTD/svg10.dtd">
<svg version="1.0" xmlns="http://www.w3.org/2000/svg"
 width="356.000000pt" height="512.000000pt" viewBox="0 0 356.000000 512.000000"
 preserveAspectRatio="xMidYMid meet">

<g transform="translate(0.000000,512.000000) scale(0.100000,-0.100000)"
fill="#000000" stroke="none">
<path d="M1565 5104 c-517 -80 -898 -427 -1069 -973 -60 -189 -91 -374 -141
-836 -20 -181 -47 -391 -61 -465 -52 -282 -140 -620 -248 -955 -39 -122 -43
-142 -32 -160 11 -17 225 -154 303 -194 43 -22 93 21 78 68 -3 11 -61 53 -133
97 -70 42 -128 78 -130 79 -1 1 5 22 13 46 37 103 120 388 165 564 90 352 112
483 166 965 71 650 133 877 311 1144 243 364 644 553 1099 516 244 -20 426
-86 644 -231 51 -34 121 -90 155 -123 115 -115 262 -369 304 -526 48 -178 89
-453 136 -920 68 -668 142 -1039 269 -1355 l34 -84 -109 -76 c-59 -41 -115
-83 -124 -91 -33 -33 -8 -94 39 -94 26 0 301 191 316 220 8 16 4 36 -19 92
-51 124 -77 199 -114 328 -82 283 -124 538 -182 1105 -66 653 -114 904 -212
1103 -37 77 -167 283 -215 342 -51 63 -274 223 -398 285 -245 123 -565 172
-845 129z"/>
<path d="M1730 4860 c-129 -16 -224 -66 -328 -174 -105 -110 -158 -214 -136
-270 9 -23 37 -20 116 15 258 113 572 114 807 4 40 -19 80 -35 87 -35 8 0 26
11 40 25 29 29 27 60 -7 126 -99 197 -357 335 -579 309z"/>
<path d="M1595 4396 c-456 -75 -739 -338 -803 -746 -16 -102 -24 -308 -14
-383 9 -68 8 -68 -19 -82 -34 -18 -75 -67 -96 -114 -20 -48 -29 -211 -14 -282
29 -138 112 -248 227 -300 35 -16 64 -34 64 -40 0 -22 118 -246 169 -322 113
-168 250 -296 393 -368 215 -108 460 -85 678 64 68 47 196 173 265 262 83 107
127 177 196 315 45 89 66 121 94 139 58 39 140 136 175 208 25 51 34 84 38
139 6 101 -16 164 -82 229 l-51 50 13 50 c21 79 10 268 -22 390 -34 126 -99
288 -155 383 -115 197 -314 334 -568 393 -114 26 -373 34 -488 15z m569 -556
c71 -244 191 -424 356 -532 l75 -50 5 -246 5 -247 46 70 c26 39 64 104 85 145
22 41 40 77 41 79 5 9 36 -25 54 -60 56 -110 -10 -268 -161 -384 -52 -40 -64
-56 -110 -152 -133 -279 -343 -520 -534 -613 -347 -169 -712 40 -951 542 -30
64 -55 121 -55 126 0 15 -33 39 -65 46 -46 11 -120 63 -148 104 -44 63 -60
113 -65 207 -5 102 7 161 42 202 l23 27 40 -85 c22 -46 61 -115 87 -154 l46
-70 0 197 0 197 31 16 c17 9 128 40 247 70 356 88 501 149 642 268 96 81 188
233 212 349 7 32 15 55 18 50 4 -4 19 -50 34 -102z"/>
<path d="M1220 1593 c-31 -12 -50 -37 -50 -68 0 -32 22 -61 50 -66 78 -16 120
90 49 126 -15 8 -29 15 -31 14 -2 0 -10 -3 -18 -6z"/>
<path d="M2313 1588 c-29 -14 -48 -60 -34 -85 37 -71 131 -55 131 22 0 50 -52
84 -97 63z"/>
<path d="M2542 1588 c-18 -18 -15 -63 6 -80 9 -8 77 -31 151 -52 74 -20 167
-51 208 -67 227 -95 392 -280 437 -491 9 -40 27 -170 41 -288 14 -118 28 -236
31 -262 6 -47 6 -47 -32 -63 -89 -37 -337 -91 -556 -120 l-47 -6 24 44 c112
200 92 424 -53 580 -175 188 -451 226 -672 92 -102 -62 -235 -216 -280 -324
l-13 -32 -37 78 c-109 231 -284 353 -505 353 -152 0 -288 -56 -395 -163 -148
-148 -187 -356 -106 -558 l25 -61 -37 6 c-20 3 -75 11 -122 17 -178 22 -396
74 -432 101 -16 12 -14 34 27 293 49 312 69 393 123 504 44 90 135 191 217
241 76 45 216 93 367 125 67 14 128 31 135 37 20 16 16 63 -7 83 -20 18 -24
18 -153 -9 -364 -75 -544 -191 -662 -426 -64 -128 -87 -226 -150 -642 -40
-263 -40 -265 23 -297 334 -170 1725 -255 2632 -160 291 30 555 83 702 141
124 49 118 17 74 386 -21 174 -47 349 -57 389 -56 222 -249 434 -484 532 -93
39 -340 111 -380 111 -17 0 -36 -5 -43 -12z"/>
<path d="M1325 1415 c-14 -13 -25 -33 -25 -45 0 -29 44 -70 75 -70 34 0 65 33
65 70 0 64 -70 91 -115 45z"/>
<path d="M2160 1420 c-41 -41 -10 -120 47 -120 29 0 73 42 73 68 0 59 -79 93
-120 52z"/>
<path d="M1508 1313 c-8 -10 -18 -26 -21 -36 -9 -24 17 -74 42 -82 28 -9 70 4
81 25 16 30 12 75 -8 93 -24 22 -75 22 -94 0z"/>
<path d="M1977 1312 c-26 -29 -22 -77 9 -101 35 -27 59 -26 89 4 30 30 31 54
4 89 -25 32 -77 36 -102 8z"/>
<path d="M1727 1252 l-57 -58 60 -59 60 -59 60 59 60 59 -57 58 c-32 32 -60
58 -63 58 -3 0 -31 -26 -63 -58z"/>
</g>
</svg>
