<svg width="14" height="19" viewBox="0 0 14 19" fill="none" xmlns="http://www.w3.org/2000/svg">
<path d="M10.6257 7.239C10.6211 6.40162 10.547 5.56636 10.4042 4.74323C9.39744 5.2295 8.3067 5.48088 7.20349 5.48088C6.10029 5.48088 5.00954 5.2295 4.00279 4.74323C3.77054 5.49759 3.65232 6.2873 3.65266 7.08213C3.59833 9.88964 5.11525 12.2007 7.04083 12.244C8.96641 12.2872 10.5713 10.0465 10.6257 7.239Z" stroke="white" stroke-linecap="round" stroke-linejoin="round"/>
<path d="M10.1589 9.64978C13.4158 7.83682 11.9169 3.32203 11.9169 3.32203C11.806 3.05637 11.6302 2.82813 11.4084 2.66162C11.1867 2.4951 10.9271 2.39654 10.6575 2.37644C10.1787 2.35082 9.70704 2.51001 9.32727 2.82542C9.32727 2.82542 6.5936 -1.08801 3.45122 2.54515C3.17285 2.8903 2.81767 3.15353 2.41903 3.31013C2.02038 3.46672 1.59136 3.51153 1.17224 3.44036C1.17224 3.44036 1.38632 4.76226 2.1281 4.90452C2.1281 4.90452 0.953421 5.94069 2.00315 7.15096C2.00315 7.15096 3.10937 10.0603 4.35737 10.2777" stroke="white" stroke-linecap="round" stroke-linejoin="round"/>
<path d="M8.85051 7.8754C8.85051 8.00331 8.81532 8.12836 8.7494 8.23471C8.68347 8.34107 8.58976 8.42397 8.48012 8.47292C8.37049 8.52187 8.24985 8.53468 8.13346 8.50973C8.01707 8.48477 7.91016 8.42317 7.82625 8.33272C7.74234 8.24227 7.68519 8.12703 7.66204 8.00157C7.63889 7.87611 7.65077 7.74607 7.69619 7.62789C7.7416 7.50971 7.8185 7.4087 7.91717 7.33764C8.01584 7.26657 8.13184 7.22864 8.25051 7.22864C8.40963 7.2287 8.56221 7.29686 8.67472 7.41813C8.78723 7.53941 8.85046 7.70388 8.85051 7.8754Z" fill="white"/>
<path d="M6.45055 7.8754C6.45055 8.00331 6.41536 8.12836 6.34943 8.23471C6.2835 8.34107 6.1898 8.42397 6.08016 8.47292C5.97052 8.52187 5.84988 8.53468 5.7335 8.50973C5.61711 8.48477 5.5102 8.42317 5.42629 8.33272C5.34237 8.24227 5.28523 8.12703 5.26208 8.00157C5.23893 7.87611 5.25081 7.74607 5.29622 7.62789C5.34163 7.50971 5.41854 7.4087 5.51721 7.33764C5.61588 7.26657 5.73188 7.22864 5.85055 7.22864C6.00966 7.2287 6.16224 7.29686 6.27475 7.41813C6.38726 7.53941 6.45049 7.70388 6.45055 7.8754Z" fill="white"/>
<path d="M7.05043 11.1099C6.69029 11.1062 6.33603 11.0111 6.01627 10.8325C5.94509 10.7941 5.89097 10.7269 5.8658 10.6455C5.84064 10.5641 5.84649 10.4753 5.88208 10.3986C5.91766 10.3219 5.98006 10.2635 6.05555 10.2364C6.13105 10.2093 6.21344 10.2156 6.28462 10.2539C6.51992 10.3907 6.78309 10.4624 7.05044 10.4624C7.3178 10.4624 7.58096 10.3907 7.81627 10.2539C7.88744 10.2156 7.96984 10.2093 8.04533 10.2364C8.08271 10.2498 8.11727 10.2711 8.14703 10.2989C8.1768 10.3267 8.20119 10.3606 8.21881 10.3986C8.23643 10.4366 8.24693 10.4779 8.24973 10.5203C8.25252 10.5627 8.24754 10.6052 8.23508 10.6455C8.22262 10.6858 8.20292 10.723 8.1771 10.7551C8.15129 10.7872 8.11986 10.8135 8.08462 10.8325C7.76485 11.0111 7.41057 11.1062 7.05043 11.1099Z" fill="white"/>
<path d="M6.27374 14.3467C6.27374 14.3467 5.89406 16.3897 6.99995 16.3897C8.10584 16.3897 7.72616 14.3467 7.72616 14.3467" stroke="white" stroke-linecap="round" stroke-linejoin="round"/>
<path d="M6.73241 16.406L5.97221 17.6465C4.82966 17.0484 4.18697 13.226 4.18697 13.226L2.58026 15.5909L3.51626 16.219L3.20198 17.2808L5.99351 17.6464" stroke="white" stroke-linecap="round" stroke-linejoin="round"/>
<path d="M7.26752 16.406L8.02769 17.6465C9.17024 17.0484 9.81296 13.226 9.81296 13.226L11.4196 15.5909L10.4836 16.219L10.7979 17.2809L8.00645 17.6465" stroke="white" stroke-linecap="round" stroke-linejoin="round"/>
<path d="M1.03935 17.6369C1.03935 17.6369 0.409826 13.2263 4.18689 13.2263C5.1915 13.9482 6.05223 14.4471 7.01967 14.445H6.98031C7.94775 14.4471 8.80845 13.9482 9.81312 13.2263C13.5901 13.2263 12.9607 17.6369 12.9607 17.6369" stroke="white" stroke-linecap="round" stroke-linejoin="round"/>
</svg>
