<?xml version="1.0" standalone="no"?>
<!DOCTYPE svg PUBLIC "-//W3C//DTD SVG 20010904//EN"
 "http://www.w3.org/TR/2001/REC-SVG-20010904/DTD/svg10.dtd">
<svg version="1.0" xmlns="http://www.w3.org/2000/svg"
 width="25.000000pt" height="25.000000pt" viewBox="0 0 25.000000 25.000000"
 preserveAspectRatio="xMidYMid meet">

<g transform="translate(0.000000,25.000000) scale(0.100000,-0.100000)"
fill="#000000" stroke="none">
<path d="M120 195 c0 -22 30 -65 45 -65 18 0 45 34 45 58 0 19 -5 22 -45 22
-34 0 -45 -4 -45 -15z"/>
<path d="M33 123 c-7 -2 -13 -18 -13 -35 0 -26 3 -30 22 -25 11 3 37 -1 57 -9
30 -13 42 -13 74 -3 36 12 65 35 55 44 -3 3 -22 -2 -42 -10 -21 -9 -35 -11
-31 -5 4 6 -12 19 -37 30 -43 20 -62 23 -85 13z"/>
</g>
</svg>
