<svg width="60" height="40" viewBox="0 0 60 40" fill="none" xmlns="http://www.w3.org/2000/svg">
<g id="Upi">
<path id="Vector" d="M5.74806 29.2446H6.1172L5.7715 31.3476C5.71876 31.6567 5.73048 31.897 5.80079 32.0515C5.87111 32.206 6.00001 32.2833 6.19337 32.2833C6.38087 32.2833 6.53908 32.206 6.66212 32.0515C6.78517 31.897 6.8672 31.6567 6.91994 31.3476L7.26564 29.2446H7.64064L7.28908 31.3991C7.2129 31.8627 7.07814 32.2146 6.87892 32.4464C6.68556 32.6781 6.42775 32.7983 6.11134 32.7983C5.79494 32.7983 5.57814 32.6867 5.46095 32.4549C5.34376 32.2232 5.32033 31.8712 5.3965 31.4077L5.74806 29.2446ZM7.5879 32.7039L8.17384 29.1073L9.28712 31.2189C9.31642 31.279 9.34572 31.3391 9.37501 31.4077C9.40431 31.4764 9.43361 31.5537 9.46876 31.6395L9.86134 29.2446H10.207L9.62111 32.8326L8.48439 30.6781L8.3965 30.4979C8.3672 30.4292 8.34376 30.3691 8.32619 30.2918L7.93361 32.6953H7.5879V32.7039ZM10.1777 32.7039L10.7402 29.2446H11.1152L10.5527 32.7039H10.1777ZM11.086 32.7039L11.6485 29.2446H12.9317L12.8555 29.7253H11.9473L11.8067 30.5837H12.7149L12.6328 31.073H11.7246L11.461 32.6953H11.086V32.7039ZM12.7852 32.7039L13.3477 29.2446H13.7227L13.1602 32.7039H12.7852ZM13.6934 32.7039L14.2559 29.2446H15.5391L15.4629 29.7253H14.5547L14.4141 30.5923H15.3223L15.2402 31.0815H14.332L14.1504 32.1974H15.0586L14.9766 32.7039H13.6934ZM15.4102 32.7039L15.9727 29.2446H16.4766C16.8047 29.2446 17.0332 29.2704 17.1563 29.3219C17.2793 29.3734 17.3848 29.4506 17.4668 29.5708C17.5723 29.7253 17.6426 29.9227 17.6719 30.1545C17.7012 30.3949 17.6895 30.6695 17.6426 30.97C17.5899 31.279 17.5137 31.5451 17.4082 31.7854C17.3027 32.0258 17.168 32.2146 17.0098 32.3691C16.8926 32.4893 16.7637 32.5665 16.6231 32.618C16.4883 32.6695 16.2832 32.6953 16.0137 32.6953H15.4102V32.7039ZM15.8672 32.1888H16.1836C16.3535 32.1888 16.4883 32.1717 16.582 32.1373C16.6758 32.103 16.7578 32.0429 16.834 31.9657C16.9395 31.8541 17.0274 31.7167 17.0977 31.5451C17.168 31.382 17.2207 31.1846 17.2559 30.9614C17.291 30.7382 17.3027 30.5494 17.2852 30.3863C17.2676 30.2232 17.2266 30.0773 17.1563 29.9657C17.1035 29.8798 17.0391 29.8283 16.9512 29.794C16.8633 29.7597 16.7285 29.7425 16.5352 29.7425H16.2656L15.8672 32.1888ZM19.3652 31.1502L19.1133 32.7039H18.7617L19.3242 29.2446H19.8926C20.0625 29.2446 20.1797 29.2618 20.2559 29.2876C20.332 29.3133 20.3906 29.3562 20.4375 29.4249C20.4961 29.5021 20.5371 29.6137 20.5547 29.7511C20.5723 29.8884 20.5664 30.0343 20.543 30.1974C20.5137 30.3605 20.4727 30.515 20.4082 30.6524C20.3438 30.7897 20.2676 30.9013 20.1856 30.9785C20.1152 31.0386 20.0391 31.0901 19.957 31.1159C19.875 31.1416 19.7461 31.1588 19.582 31.1588H19.3652V31.1502ZM19.4649 30.6867H19.5586C19.7637 30.6867 19.9102 30.6524 19.9922 30.5837C20.0742 30.515 20.127 30.3949 20.1563 30.2232C20.1856 30.0429 20.168 29.9056 20.1094 29.8369C20.0449 29.7597 19.916 29.7253 19.7227 29.7253H19.6289L19.4649 30.6867ZM21.8145 32.7039L21.6973 31.8112H20.7832L20.3731 32.7039H19.9805L21.6797 29.1073L22.207 32.7039H21.8145ZM21.0059 31.3391H21.6445L21.5391 30.5494C21.5332 30.4979 21.5274 30.4378 21.5274 30.3777C21.5215 30.309 21.5215 30.2403 21.5215 30.1631C21.4981 30.2403 21.4746 30.309 21.4453 30.3777C21.4219 30.4464 21.3984 30.5064 21.375 30.5579L21.0059 31.3391ZM22.7461 32.7039L23.0039 31.1245L22.5352 29.2532H22.9277L23.2207 30.4292C23.2266 30.4635 23.2324 30.4979 23.2442 30.5494C23.2559 30.6009 23.2617 30.6524 23.2735 30.7039L23.3438 30.5494C23.3672 30.4979 23.3906 30.4549 23.4141 30.412L24.0996 29.2532H24.4746L23.3789 31.1159L23.1211 32.6953H22.7461V32.7039ZM26.3145 30.9957C26.3145 30.97 26.3203 30.8927 26.332 30.7725C26.3379 30.6695 26.3438 30.5923 26.3496 30.5236C26.3262 30.6009 26.3027 30.6781 26.2734 30.764C26.2442 30.8412 26.209 30.927 26.168 31.0043L25.2656 32.8498L24.9727 30.97C24.961 30.8927 24.9492 30.8155 24.9434 30.7468C24.9375 30.6781 24.9317 30.6009 24.9317 30.5322C24.9199 30.6009 24.9024 30.6781 24.8848 30.764C24.8672 30.8412 24.8438 30.927 24.8145 31.0129L24.2871 32.7125H23.9414L25.0723 29.1073L25.3945 31.2876C25.4004 31.3219 25.4063 31.382 25.4121 31.4592C25.418 31.5365 25.4297 31.6395 25.4414 31.7597C25.4824 31.6567 25.5352 31.5365 25.6055 31.382C25.6231 31.3391 25.6406 31.3133 25.6465 31.2876L26.666 29.1073L26.6309 32.7125H26.2852L26.3145 30.9957ZM26.9356 32.7039L27.4981 29.2446H28.7813L28.7051 29.7253H27.7969L27.6563 30.5923H28.5645L28.4824 31.0815H27.5742L27.3926 32.1974H28.3008L28.2188 32.7039H26.9356ZM28.6465 32.7039L29.2324 29.1073L30.3457 31.2189C30.375 31.279 30.4043 31.3391 30.4336 31.4077C30.4629 31.4764 30.4922 31.5537 30.5274 31.6395L30.9199 29.2446H31.2656L30.6797 32.8326L29.543 30.6781L29.4551 30.4979C29.4258 30.4292 29.4024 30.3691 29.3848 30.2918L28.9922 32.6953H28.6465V32.7039ZM32.4609 29.7167L31.9746 32.6953H31.5996L32.0859 29.7167H31.4766L31.5527 29.2361H33.1465L33.0703 29.7167H32.4609ZM32.8535 32.0086L33.1875 31.8026C33.1934 31.9571 33.2227 32.0773 33.2871 32.1545C33.3516 32.2318 33.4395 32.2747 33.5567 32.2747C33.668 32.2747 33.7617 32.2318 33.8438 32.1373C33.9258 32.0429 33.9785 31.9228 34.002 31.7682C34.0371 31.5622 33.9551 31.382 33.7559 31.2275C33.7266 31.2017 33.709 31.1846 33.6914 31.176C33.4688 30.9871 33.3281 30.824 33.2695 30.6695C33.2109 30.515 33.1992 30.3348 33.2344 30.1202C33.2813 29.8369 33.3809 29.6137 33.5391 29.4335C33.6973 29.2618 33.8731 29.1674 34.084 29.1674C34.2539 29.1674 34.3887 29.2189 34.4883 29.3133C34.5879 29.4077 34.6406 29.5537 34.6582 29.7339L34.3301 29.9571C34.3008 29.8455 34.2656 29.7682 34.2188 29.7167C34.1719 29.6652 34.1133 29.6395 34.043 29.6395C33.9434 29.6395 33.8555 29.6824 33.7852 29.7597C33.7149 29.8369 33.668 29.9399 33.6445 30.0773C33.6094 30.2833 33.709 30.4807 33.9375 30.6609C33.9551 30.6781 33.9668 30.6867 33.9785 30.6953C34.1777 30.8498 34.3125 31.0043 34.3711 31.1588C34.4297 31.3133 34.4414 31.4936 34.4063 31.7253C34.3535 32.0515 34.2422 32.309 34.0723 32.5064C33.9024 32.6953 33.7031 32.7983 33.4688 32.7983C33.2754 32.7983 33.1231 32.7296 33.0176 32.5923C32.9004 32.4549 32.8477 32.2575 32.8535 32.0086ZM35.6133 32.7039L36.1758 29.2446H36.5508L35.9883 32.7039H35.6133ZM36.5274 32.7039L37.1133 29.1073L38.2266 31.2189C38.2559 31.279 38.2852 31.3391 38.3145 31.4077C38.3438 31.4764 38.3731 31.5537 38.4082 31.6395L38.8008 29.2446H39.1465L38.5606 32.8326L37.4238 30.6781L37.336 30.4979C37.3067 30.4292 37.2832 30.3691 37.2656 30.2918L36.8731 32.6953H36.5274V32.7039ZM40.3418 29.7167L39.8555 32.6953H39.4805L39.9668 29.7167H39.3574L39.4336 29.2361H41.0274L40.9512 29.7167H40.3418ZM40.7461 32.7039L41.3086 29.2446H42.5977L42.5215 29.7253H41.6133L41.4727 30.5923H42.3809L42.2988 31.0815H41.3906L41.209 32.1974H42.1172L42.0352 32.7039H40.7461ZM43.0606 31.1502L42.8086 32.6953H42.457L43.0195 29.2361H43.541C43.6934 29.2361 43.8106 29.2532 43.8867 29.279C43.9688 29.3047 44.0332 29.3562 44.0801 29.4249C44.1387 29.5107 44.1738 29.6137 44.1914 29.7511C44.209 29.8798 44.2031 30.0258 44.1797 30.1888C44.1328 30.4635 44.0567 30.6867 43.9395 30.8412C43.8223 30.9957 43.6758 31.0901 43.5 31.1245L44.0332 32.6953H43.6113L43.1016 31.1502H43.0606ZM43.1543 30.7124H43.2246C43.4238 30.7124 43.5586 30.6781 43.6348 30.6094C43.711 30.5408 43.7637 30.4206 43.793 30.2403C43.8223 30.0515 43.8106 29.9142 43.752 29.8369C43.6934 29.7597 43.5703 29.7167 43.3828 29.7167H43.3125L43.1543 30.7124ZM44.2617 32.7039L44.8242 29.2446H46.1074L46.0313 29.7253H45.1231L44.9824 30.5837H45.8906L45.8086 31.073H44.9004L44.6367 32.6953H44.2617V32.7039ZM47.3555 32.7039L47.2383 31.8112H46.3242L45.9141 32.7039H45.5215L47.2207 29.1073L47.7481 32.7039H47.3555ZM46.541 31.3391H47.1797L47.0742 30.5494C47.0684 30.4979 47.0625 30.4378 47.0625 30.3777C47.0567 30.309 47.0567 30.2403 47.0567 30.1631C47.0332 30.2403 47.0098 30.309 46.9805 30.3777C46.957 30.4464 46.9336 30.5064 46.9102 30.5579L46.541 31.3391ZM50.1856 30.0858C50.1035 29.9485 50.0039 29.8455 49.8984 29.7854C49.793 29.7167 49.6758 29.6824 49.541 29.6824C49.2891 29.6824 49.0664 29.8026 48.8672 30.0429C48.668 30.2833 48.5391 30.6009 48.4746 30.9871C48.416 31.3562 48.4395 31.6652 48.5567 31.9142C48.668 32.1545 48.8438 32.2747 49.0781 32.2747C49.2129 32.2747 49.3477 32.2403 49.4824 32.1631C49.6172 32.0944 49.752 31.9828 49.8926 31.8369L49.7871 32.4721C49.6699 32.5837 49.5469 32.6609 49.418 32.7125C49.2891 32.764 49.1602 32.7897 49.0195 32.7897C48.8438 32.7897 48.6856 32.7468 48.5508 32.6609C48.416 32.5751 48.3047 32.4464 48.2168 32.2747C48.1289 32.1116 48.0762 31.9142 48.0527 31.691C48.0293 31.4678 48.0352 31.2275 48.082 30.97C48.1231 30.7124 48.1934 30.4807 48.2871 30.2575C48.3809 30.0343 48.5039 29.8369 48.6445 29.6738C48.7852 29.5022 48.9375 29.3734 49.1016 29.2876C49.2656 29.2017 49.4297 29.1588 49.5996 29.1588C49.7344 29.1588 49.8574 29.1846 49.9746 29.2446C50.086 29.3047 50.1914 29.3906 50.2852 29.5107L50.1856 30.0858ZM50.2207 32.7039L50.7832 29.2446H52.0664L51.9902 29.7253H51.082L50.9414 30.5923H51.8496L51.7676 31.0815H50.8594L50.6777 32.1974H51.586L51.5039 32.7039H50.2207Z" fill="#3D3D3C"/>
<path id="Vector_2" d="M43.4004 26.2318H40.8281L44.4024 7.32188H46.9746L43.4004 26.2318ZM42.0645 7.91416C41.8887 7.55364 41.6133 7.37339 41.2383 7.37339H27.1055L26.4082 11.0815H39.2637L38.5137 15.0386H28.2305V15.03H25.6582L23.5254 26.3176H26.0977L27.5274 18.7468H39.0879C39.4512 18.7468 39.791 18.5665 40.1074 18.206C40.4238 17.8455 40.6348 17.3991 40.7344 16.8669L42.1641 9.29613C42.2754 8.72961 42.2402 8.27467 42.0645 7.91416ZM22.0254 25.0472C21.8848 25.794 21.416 26.3176 20.8887 26.3176H7.62892C7.26564 26.3176 6.99611 26.1373 6.82033 25.7768C6.64455 25.4163 6.60353 24.97 6.709 24.4378L9.94338 7.37339H12.5156L9.62697 22.618H19.916L22.8047 7.37339H25.377L22.0254 25.0472Z" fill="#70706E"/>
<path id="Vector_3" d="M51.416 7.35622L54.668 16.8326L47.8301 26.309L51.416 7.35622Z" fill="#098041"/>
<path id="Vector_4" d="M49.1309 7.35622L52.3828 16.8326L45.5391 26.309L49.1309 7.35622Z" fill="#E97626"/>
</g>
</svg>
