<svg width="20" height="19" viewBox="0 0 20 19" fill="none" xmlns="http://www.w3.org/2000/svg">
<path d="M7.00027 9.49977C9.20973 9.49977 11.0004 7.37346 11.0004 4.74989C11.0004 2.12632 9.20973 0 7.00027 0C4.79081 0 3.00012 2.12632 3.00012 4.74989C3.00012 7.37346 4.79081 9.49977 7.00027 9.49977ZM9.80038 10.6872H9.27849C8.58471 11.0658 7.81281 11.281 7.00027 11.281C6.18774 11.281 5.41896 11.0658 4.72206 10.6872H4.20016C1.88132 10.6872 0 12.9212 0 15.6746V17.2183C0 18.2017 0.671901 18.9995 1.50006 18.9995H10.091C10.016 18.7472 9.98477 18.48 10.0098 18.2091L10.2223 15.9492L10.2598 15.5373L10.5067 15.2442L12.9224 12.3757C12.1567 11.3478 11.0473 10.6872 9.80038 10.6872ZM11.2161 16.0791L11.0036 18.3427C10.9692 18.7212 11.2379 19.0404 11.5536 18.9958L13.4568 18.7435L17.7663 13.6262L15.5256 10.9656L11.2161 16.0791ZM19.782 9.97847L18.5976 8.57206C18.307 8.22695 17.8319 8.22695 17.5413 8.57206L16.36 9.97476L16.2319 10.1269L18.4757 12.7876L19.782 11.2365C20.0727 10.8876 20.0727 10.3273 19.782 9.97847Z" fill="black"/>
</svg>
