<svg width="18" height="20" viewBox="0 0 18 20" fill="none" xmlns="http://www.w3.org/2000/svg">
<g id="&#240;&#159;&#166;&#134; icon &#34;Trash&#34;">
<path id="Vector" d="M16.875 1.25001H12.1875L11.8203 0.519538C11.7425 0.363372 11.6227 0.232008 11.4743 0.140225C11.326 0.0484421 11.1549 -0.00011828 10.9805 6.84872e-06H6.51562C6.34155 -0.000662313 6.17081 0.047717 6.02297 0.139602C5.87512 0.231487 5.75615 0.363161 5.67969 0.519538L5.3125 1.25001H0.625C0.45924 1.25001 0.300268 1.31585 0.183058 1.43306C0.065848 1.55027 0 1.70925 0 1.87501L0 3.12501C0 3.29077 0.065848 3.44974 0.183058 3.56695C0.300268 3.68416 0.45924 3.75001 0.625 3.75001H16.875C17.0408 3.75001 17.1997 3.68416 17.3169 3.56695C17.4341 3.44974 17.5 3.29077 17.5 3.12501V1.87501C17.5 1.70925 17.4341 1.55027 17.3169 1.43306C17.1997 1.31585 17.0408 1.25001 16.875 1.25001ZM2.07812 18.2422C2.10793 18.7182 2.31803 19.165 2.66565 19.4915C3.01326 19.8181 3.47226 19.9999 3.94922 20H13.5508C14.0277 19.9999 14.4867 19.8181 14.8343 19.4915C15.182 19.165 15.3921 18.7182 15.4219 18.2422L16.25 5H1.25L2.07812 18.2422Z" fill="black"/>
</g>
</svg>
