<svg width="20" height="20" viewBox="0 0 20 20" fill="none" xmlns="http://www.w3.org/2000/svg">
<g id="&#240;&#159;&#166;&#134; icon &#34;phone fill contact&#34;">
<g id="Group">
<path id="Vector" fill-rule="evenodd" clip-rule="evenodd" d="M13.7936 18.4437C12.5928 18.3996 9.19226 17.9301 5.63113 14.3689C2.06997 10.8077 1.60047 7.40719 1.55629 6.2064C1.48895 4.37685 2.89045 2.59919 4.51013 1.90505C4.89018 1.74217 5.3505 1.77197 5.7144 2.03742C7.04673 3.00927 7.96726 4.47863 8.75751 5.63472C9.11451 6.15697 9.02918 6.87001 8.54426 7.28977L6.91831 8.49733C6.75715 8.617 6.70357 8.8345 6.80023 9.01042C7.1681 9.68008 7.82349 10.6766 8.57343 11.4266C9.32426 12.1773 10.3678 12.875 11.0835 13.2843C11.2691 13.3905 11.5025 13.329 11.6198 13.1502L12.6776 11.5391C13.0832 10.9992 13.8407 10.8813 14.3913 11.2624C15.5642 12.0742 16.9323 12.9781 17.9342 14.2611C18.2188 14.6256 18.2611 15.1022 18.0913 15.4984C17.394 17.1256 15.6293 18.5113 13.7936 18.4437Z" fill="#09244B"/>
</g>
</g>
</svg>
