<svg width="16" height="20" viewBox="0 0 16 20" fill="none" xmlns="http://www.w3.org/2000/svg">
<g id="&#240;&#159;&#166;&#134; icon &#34;lock&#34;">
<path id="Vector" d="M13.4392 7.6255H13.0108V5.2831C13.0108 2.3699 10.6409 0 7.7276 0C4.8146 0 2.4446 2.3699 2.4446 5.2831V7.6255H2.0159C0.9026 7.6255 0 8.528 0 9.6414V15.9003C0 18.1645 1.8354 20 4.0996 20H11.3555C13.6197 20 15.4551 18.1645 15.4551 15.9003V9.6414C15.4551 8.528 14.5526 7.6255 13.4392 7.6255ZM8.4782 13.8545V16.4007C8.4782 16.8152 8.1421 17.1513 7.7276 17.1513C7.3131 17.1513 6.977 16.8152 6.977 16.4007V13.8545C6.4052 13.5757 6.0103 12.9906 6.0103 12.3117C6.0103 11.3633 6.7792 10.5943 7.7276 10.5943C8.6761 10.5943 9.445 11.3632 9.445 12.3117C9.445 12.9906 9.0499 13.5758 8.4782 13.8545ZM11.1002 7.6255H4.3554V5.2831C4.3554 3.4235 5.8682 1.9106 7.7277 1.9106C9.5874 1.9106 11.1002 3.4235 11.1002 5.2831V7.6255Z" fill="black"/>
</g>
</svg>
